PathFileType	4	(X/Y/Z)	C:\Users\WrightLab\Desktop\Jo\P2_Trial17.trc
DataRate	CameraRate	NumFrames	NumMarkers	Units	OrigDataRate	OrigDataStartFrame	OrigNumFrames
100.00	100.00	      21	19	mm	100.00	130	      1033
Frame#	Time	Headset_Front			Headset_Back			Headset_Left			Headset_Right			Left_Shoulder			Right_Shoulder			Sternum			C7			Left Elbow			Right Elbow			Left Wrist			Right Wrist			Left ASIS			Right ASIS			S2			Left Knee			Right Knee			Left Ankle			Right Ankle			
		X1	Y1	Z1	X2	Y2	Z2	X3	Y3	Z3	X4	Y4	Z4	X5	Y5	Z5	X6	Y6	Z6	X7	Y7	Z7	X8	Y8	Z8	X9	Y9	Z9	X10	Y10	Z10	X11	Y11	Z11	X12	Y12	Z12	X13	Y13	Z13	X14	Y14	Z14	X15	Y15	Z15	X16	Y16	Z16	X17	Y17	Z17	X18	Y18	Z18	X19	Y19	Z19	

130	1.290							-160.23730	1576.50269	1607.88733	-25.99129	1683.01904	1631.45386										-30.56567	1484.83423	1814.88196										263.11963	1266.22729	1960.65454							-14.78059	1007.97095	1983.42993	-189.66223	483.54446	1814.35242	254.30905	606.29138	1856.66956	-233.00783	131.41180	1890.03821	277.69861	173.36496	1805.33789	
131	1.300							-157.18205	1576.90149	1606.64392	-22.41702	1682.36292	1626.75256										-27.16015	1485.41870	1811.71777										267.72858	1267.16418	1956.69080							-9.51469	1008.22888	1980.77356	-188.38995	484.23544	1812.52356	257.35959	606.93732	1853.82373	-231.63599	132.50703	1888.46704	275.09283	172.97620	1807.70630	
132	1.310							-154.07933	1577.31348	1604.83057	-19.42241	1683.44202	1624.57849										-23.65981	1486.81580	1810.70520										272.44006	1268.64771	1954.10400							-4.72677	1009.01904	1978.39722	-188.17772	484.92676	1812.27454	260.67923	608.28308	1853.52881	-230.90463	133.41632	1887.88013	272.89972	172.39879	1810.39490	
133	1.320							-151.28647	1577.18872	1601.86438	-15.86609	1683.91113	1622.35852										-20.08096	1486.62720	1807.60864							-326.07242	945.97510	1470.22974	277.08090	1269.38965	1949.57275							1.00024	1010.00055	1976.80505	-188.11978	485.53683	1811.72913	263.94894	607.44507	1850.84973	-230.66428	133.86633	1888.05518	269.68915	172.73709	1810.78894	
134	1.330							-147.87747	1578.34705	1600.26038	-12.66343	1683.87305	1618.38318										-16.45800	1487.69556	1804.73413							-324.81705	946.66418	1468.98987	281.60379	1271.02979	1946.20117							5.48026	1010.78436	1974.69690	-186.57393	486.98877	1810.10730	266.45309	606.77563	1848.49634	-230.05856	134.40645	1887.20239	267.93008	172.52281	1812.10242	
135	1.340							-144.75838	1578.30701	1598.19592	-9.50255	1683.79578	1614.29565										-12.42586	1487.88330	1803.09192							-323.53098	947.19391	1467.84924	286.17642	1271.83264	1943.05518							10.84951	1010.88525	1971.73083	-185.54765	487.67172	1808.98694	269.65387	607.14917	1848.17761	-229.42012	135.04597	1886.39392	265.63651	172.48492	1814.37903	
136	1.350							-142.18915	1578.38257	1595.23218	-6.02876	1683.80737	1611.56311	164.24310	1505.11316	1720.80493							-9.02133	1487.79492	1799.12463	-254.97391	1116.92651	1580.83240				-322.40329	947.73425	1467.11426	290.48865	1272.83936	1939.56421							15.84993	1012.57336	1971.37317	-183.46503	487.54770	1808.68396	271.63446	607.98956	1847.86975	-228.89252	135.72012	1885.90759	264.28394	173.23427	1816.01843	
137	1.360							-138.96489	1578.55334	1593.21204	-2.94674	1685.10864	1609.88196	167.48381	1506.14453	1718.26440							-5.57150	1488.41443	1797.39294	-254.17148	1117.29065	1582.85889				-321.06439	947.96423	1466.22754	294.91922	1273.39355	1936.04407							20.72379	1012.29285	1967.92395	-181.69435	489.35742	1806.55225	275.69244	608.19061	1848.20154	-227.98218	136.84103	1884.61841	262.41403	173.96211	1815.50879	
138	1.370							-135.59659	1579.07214	1591.35950	-0.14195	1684.37622	1606.83838	170.32370	1506.58325	1715.68066							-1.97184	1488.75098	1795.43909	-251.50493	1117.92249	1581.36829	345.96741	1179.39490	1747.67261	-319.69034	948.00061	1465.24768	299.36057	1274.16479	1933.02283							25.69857	1013.38794	1966.85229	-180.09752	489.53748	1805.63440	278.31021	608.77161	1849.02539	-228.06476	137.68942	1883.76086	261.41440	173.80302	1816.63257	
139	1.380							-132.90872	1578.89319	1588.23987	3.28705	1684.27368	1602.15503	173.76636	1507.04260	1712.66199							1.24050	1488.35620	1791.98193	-249.04974	1118.32751	1579.56750	349.40533	1179.43958	1742.74707	-318.67432	948.02753	1464.40930	303.62003	1274.86877	1929.37842							30.68126	1014.18109	1965.36829	-176.07236	490.91901	1803.04077	281.02228	608.20538	1851.41614	-227.28569	138.91345	1883.26831	259.97089	173.89117	1816.61340	
140	1.390							-129.67693	1578.58923	1585.55078	6.00847	1684.69995	1600.76489	176.53230	1506.95349	1709.75671							4.68312	1488.58545	1790.62109	-246.85667	1118.32837	1578.30579	352.46805	1180.12378	1739.79944	-317.77225	947.99194	1463.96521	307.77664	1275.36914	1926.50281							35.12737	1013.98535	1962.69617	-172.94691	490.66928	1803.55762	283.21613	607.97931	1852.21448	-225.73856	138.59459	1884.93848	259.42285	173.66158	1816.85120	
141	1.400							-126.51183	1578.44055	1584.02661	9.09518	1683.98572	1598.95667	180.27768	1507.22205	1706.50732							7.92238	1489.18762	1788.83643	-246.13000	1119.50781	1578.65381	355.88544	1180.08130	1736.79211	-316.75534	947.87616	1463.39819	312.37848	1275.51123	1922.62524							40.39840	1015.23889	1961.44861	-166.86389	490.25574	1800.86267	285.93561	607.35681	1853.52710	-224.55756	140.74146	1881.66418	259.34656	173.55743	1816.84717	
142	1.410							-123.99577	1578.34326	1581.79712	12.31469	1683.53845	1595.07703	183.13820	1507.36157	1704.19080							11.06947	1488.79211	1785.97559	-241.74004	1118.19092	1576.48669	358.76114	1180.09998	1733.43860	-315.92130	947.64557	1463.24219	316.52695	1276.04736	1919.46472							44.64213	1014.67487	1958.91711	-160.09357	490.15424	1798.03430	288.64539	607.46826	1857.87329	-223.57780	140.24046	1881.30737	259.18683	173.12056	1816.70532	
143	1.420	66.74453	1499.40991	1471.34509				-120.84734	1577.54150	1578.48535	15.19342	1683.16785	1591.60608	186.35089	1507.78809	1700.84644							15.09344	1488.50195	1784.29822	-239.55675	1117.92676	1575.44751	361.52048	1180.02173	1730.52039	-314.64966	947.12744	1463.16711	320.75220	1275.93774	1916.51770							49.09628	1015.62305	1957.77148	-151.58311	489.10812	1794.03052	290.67737	606.58600	1858.14966	-222.27058	141.00485	1879.68372	259.27225	172.84135	1816.64319	
144	1.430	69.12161	1498.56677	1467.44067				-117.73083	1577.16028	1577.01904	17.97929	1683.21680	1589.38647	189.23575	1507.37085	1698.61157							18.63422	1488.85254	1781.47156	-236.80653	1117.54309	1574.63232	364.67557	1178.93567	1727.01343	-313.12738	946.53156	1463.26123	324.99106	1275.90784	1912.75476							53.41217	1015.10974	1955.75037	-142.07492	488.95035	1791.67346	294.54565	607.05347	1860.38684	-220.76883	142.47223	1877.93982	259.45032	172.81342	1816.36182	
145	1.440	71.97309	1498.42334	1466.14233				-115.31719	1576.62585	1575.80591	20.61561	1682.93555	1588.69727	192.01929	1507.19385	1695.71704							21.85818	1488.23645	1778.69177	-233.99014	1116.84021	1573.68774	366.62152	1178.28345	1723.09534	-311.93402	945.99982	1463.61755	328.67993	1276.42053	1910.29834							57.64671	1015.13336	1953.69446	-132.74382	487.50369	1789.25977	295.69934	607.35870	1861.90222	-219.64984	143.00299	1877.10938	260.18304	172.18161	1815.96460	
146	1.450	74.69103	1497.15613	1463.31213				-112.60911	1575.81885	1572.79468	23.32607	1682.39734	1585.87378	195.63242	1506.84607	1692.60217							25.57538	1488.02417	1777.91724	-231.55347	1116.34692	1573.67590	369.90988	1178.09619	1720.36304	-310.47897	945.40131	1464.27319	333.02979	1275.78406	1906.86389							61.34096	1014.41577	1950.91418	-122.98013	485.69098	1786.83252	298.18777	606.32751	1862.83289	-217.35390	146.64925	1874.18384	261.59021	171.97076	1815.40662	
147	1.460	76.86005	1496.92236	1461.03625				-109.49431	1575.11499	1571.02820	25.61793	1682.00684	1582.89233	198.95111	1506.35657	1689.56628							28.92574	1487.85864	1774.71826	-228.93230	1115.34705	1574.26404	372.28677	1176.77136	1717.05627	-308.65674	944.55603	1465.32275	337.35120	1275.46521	1903.16821							65.21569	1014.57831	1950.25793	-113.28687	483.63370	1782.27100	299.06131	605.71643	1862.12537	-215.09753	148.36876	1871.31653	263.29385	172.04591	1814.32837	
148	1.470	78.93490	1496.07410	1458.59143				-106.71588	1574.66956	1569.63330	28.43329	1681.53821	1579.59790	202.02925	1506.36182	1687.49329							32.57002	1487.90735	1773.12866	-225.91188	1114.71692	1572.97437	374.59897	1175.67761	1712.97021	-306.71207	943.58307	1466.77795	340.92148	1275.00537	1899.58350							68.42176	1014.17236	1947.09460	-103.72617	483.09674	1780.35645	300.57574	605.05981	1861.71130	-212.27859	150.91643	1869.69165	264.67526	172.41504	1812.81946	
149	1.480	82.38566	1495.13965	1457.48206				-104.27425	1573.84058	1567.30103	31.26321	1681.13477	1577.64075	205.47102	1506.34290	1685.39490							36.07441	1487.63110	1771.46692	-222.94702	1113.58582	1573.81665	376.97916	1174.85205	1710.86609	-305.00421	942.74371	1468.22681	345.02145	1274.71802	1897.42029							72.62354	1013.99854	1945.34338	-93.50062	482.55548	1777.41614	302.03964	604.57593	1862.07288	-206.47279	154.42880	1866.06128	267.48087	171.57089	1813.03735	
150	1.490	85.27701	1494.97522	1455.76221				-102.05199	1573.67126	1565.94128	33.24290	1681.22144	1576.71436	208.47523	1505.50720	1682.71252							38.85415	1488.12317	1769.73975	-220.18448	1112.53577	1573.61072	379.07285	1173.62732	1707.40186				349.05643	1274.19336	1893.89734							76.05347	1013.45691	1943.48596	-84.30210	481.70111	1774.06873	303.83316	604.53033	1863.03064	-202.04735	157.60695	1864.19678	269.17569	171.55472	1811.92395	
